<svg aria-hidden="true" style="position: absolute; width: 0; height: 0; overflow: hidden;" version="1.1" xmlns="http://www.w3.org/2000/svg" xmlns:xlink="http://www.w3.org/1999/xlink">
<defs>
<symbol id="icon-12" viewBox="0 0 32 32">
<path stroke-linejoin="miter" stroke-linecap="round" stroke-miterlimit="4" stroke-width="2.6667" d="M6.667 6.667h18.667M6.667 16h18.667M6.667 25.333h18.667"></path>
</symbol>
<symbol id="icon-Add" viewBox="0 0 32 32">
<path d="M15.845 4.009l0.155-0.009c0.684 0 1.247 0.515 1.324 1.178l0.009 0.155v9.333h9.333c0.684 0 1.247 0.515 1.324 1.178l0.009 0.155c0 0.684-0.515 1.247-1.178 1.324l-0.155 0.009h-9.333v9.333c0 0.684-0.515 1.247-1.178 1.324l-0.155 0.009c-0.684 0-1.247-0.515-1.324-1.178l-0.009-0.155v-9.333h-9.333c-0.684 0-1.247-0.515-1.324-1.178l-0.009-0.155c0-0.684 0.515-1.247 1.178-1.324l0.155-0.009h9.333v-9.333c0-0.684 0.515-1.247 1.178-1.324v0z"></path>
</symbol>
<symbol id="icon-Caret" viewBox="0 0 30 32">
<path d="M10.039 23.402c0 1.348 1.587 2.068 2.602 1.181l7.919-6.929c1-0.875 1-2.43 0-3.305l-7.919-6.929c-1.014-0.887-2.602-0.167-2.602 1.181v14.803z"></path>
</symbol>
<symbol id="icon-Chevron" viewBox="0 0 32 32">
<path d="M11.293 5.626c-0.391 0.391-0.391 1.024 0 1.414l8.96 8.96-8.96 8.96c-0.391 0.391-0.391 1.024 0 1.414s1.024 0.391 1.414 0l9.667-9.667c0.391-0.391 0.391-1.024 0-1.414l-9.667-9.667c-0.391-0.391-1.024-0.391-1.414 0z"></path>
</symbol>
<symbol id="icon-Dismiss" viewBox="0 0 32 32">
<path d="M5.863 6.072l0.097-0.112c0.355-0.355 0.911-0.387 1.302-0.097l0.112 0.097 8.626 8.626 8.626-8.626c0.391-0.391 1.024-0.391 1.414 0s0.391 1.024 0 1.414l-8.626 8.626 8.626 8.626c0.355 0.355 0.387 0.911 0.097 1.302l-0.097 0.112c-0.355 0.355-0.911 0.387-1.302 0.097l-0.112-0.097-8.626-8.626-8.626 8.626c-0.391 0.391-1.024 0.391-1.414 0s-0.391-1.024 0-1.414l8.626-8.626-8.626-8.626c-0.355-0.355-0.387-0.911-0.097-1.302v0z"></path>
</symbol>
<symbol id="icon-Menu" viewBox="0 0 171 32">
<path d="M12.072 8.701c-0.109-1.066-0.425-1.862-0.947-2.389-0.51-0.539-1.214-0.809-2.112-0.809-0.85 0-1.548 0.276-2.094 0.828-0.534 0.552-0.801 1.26-0.801 2.126 0 0.903 0.273 1.605 0.819 2.107 0.534 0.489 1.578 1.010 3.132 1.561 2.841 1.003 4.862 2.188 6.063 3.556s1.803 3.173 1.803 5.418c0 2.671-0.838 4.86-2.513 6.566s-3.824 2.558-6.446 2.558c-2.476 0-4.546-0.803-6.209-2.408-1.651-1.605-2.573-3.7-2.768-6.283h5.353c0.134 1.229 0.516 2.17 1.147 2.822 0.643 0.64 1.505 0.959 2.586 0.959 1.117 0 2.027-0.332 2.731-0.997 0.716-0.665 1.074-1.524 1.074-2.577 0-1.154-0.346-2.057-1.038-2.709-0.68-0.64-2.015-1.311-4.006-2.013-2.452-0.865-4.194-1.925-5.226-3.179s-1.548-2.928-1.548-5.023c0-2.408 0.759-4.377 2.276-5.907 1.517-1.543 3.466-2.314 5.845-2.314 2.197 0 4.073 0.778 5.626 2.333 1.554 1.543 2.385 3.468 2.495 5.775h-5.244z"></path>
<path d="M24.308 29.658v-23.591h-5.135v-4.91h15.368v4.91h-5.135v23.591h-5.098z"></path>
<path d="M56.428 18.991c0 3.599-0.856 6.371-2.567 8.315-1.699 1.944-4.133 2.916-7.302 2.916-3.156 0-5.596-0.972-7.32-2.916-1.712-1.944-2.567-4.716-2.567-8.315v-17.834h5.098v18.079c0 2.032 0.394 3.556 1.184 4.571 0.801 1.003 2.003 1.505 3.605 1.505 1.59 0 2.78-0.502 3.569-1.505 0.801-1.016 1.202-2.54 1.202-4.571v-18.079h5.098v17.834z"></path>
<path d="M60.852 29.658v-28.501h6.282c4.941 0 8.819 1.248 11.635 3.744 2.828 2.483 4.243 5.895 4.243 10.234 0 4.515-1.36 8.064-4.079 10.648s-6.452 3.875-11.198 3.875h-6.883zM65.951 24.748h1.784c3.241 0 5.742-0.809 7.502-2.427 1.772-1.63 2.658-3.932 2.658-6.904 0-2.985-0.935-5.286-2.804-6.904-1.869-1.63-4.522-2.446-7.957-2.446h-1.184v18.681z"></path>
<path d="M87.291 29.658v-28.501h5.098v28.501h-5.098z"></path>
<path d="M102.768 29.658h-5.098v-28.501h5.863l11.471 20.825v-20.825h5.098v28.501h-5.626l-11.708-20.995v20.995z"></path>
<path d="M124.946 29.658v-28.501h14.056v4.91h-8.958v7.017h8.521v4.91h-8.521v11.664h-5.099z"></path>
<path d="M156.245 30.222c-3.993 0-7.398-1.442-10.215-4.327-2.803-2.885-4.205-6.377-4.205-10.479 0-4.114 1.402-7.613 4.205-10.497 2.817-2.885 6.222-4.327 10.215-4.327 4.006 0 7.411 1.442 10.215 4.327s4.206 6.384 4.206 10.497c0 4.101-1.402 7.594-4.206 10.479s-6.209 4.327-10.215 4.327zM156.245 25.312c2.598 0 4.795-0.959 6.592-2.878 1.809-1.919 2.713-4.258 2.713-7.017 0-2.772-0.904-5.117-2.713-7.036-1.797-1.919-3.994-2.878-6.592-2.878s-4.8 0.959-6.61 2.878c-1.796 1.919-2.694 4.264-2.694 7.036 0 2.759 0.898 5.098 2.694 7.017 1.81 1.919 4.012 2.878 6.61 2.878z"></path>
</symbol>
<symbol id="icon-Minus" viewBox="0 0 32 32">
<path d="M17.333 14.667h9.333c0.684 0 1.247 0.515 1.324 1.178l0.009 0.155c0 0.684-0.515 1.247-1.178 1.324l-0.155 0.009h-9.333c-1.333 0-1.333 0-2.667 0h-9.333c-0.684 0-1.247-0.515-1.324-1.178l-0.009-0.155c0-0.684 0.515-1.247 1.178-1.324l0.155-0.009h9.333c1.333 0 1.333 0 2.667 0z"></path>
</symbol>
<symbol id="icon-Social-1" viewBox="0 0 32 32">
<path d="M29.638 0h-27.276c-0.627 0-1.227 0.249-1.67 0.692s-0.692 1.044-0.692 1.67v27.276c0 0.627 0.249 1.227 0.692 1.67s1.044 0.692 1.67 0.692h27.276c0.627 0 1.227-0.249 1.67-0.692s0.692-1.044 0.692-1.67v-27.276c0-0.627-0.249-1.227-0.692-1.67s-1.044-0.692-1.67-0.692zM9.538 27.26h-4.811v-15.282h4.811v15.282zM7.129 9.86c-0.546-0.003-1.078-0.168-1.531-0.473s-0.804-0.738-1.010-1.243c-0.207-0.505-0.259-1.060-0.15-1.595s0.373-1.026 0.76-1.41c0.387-0.385 0.88-0.646 1.415-0.751s1.090-0.049 1.594 0.161c0.504 0.21 0.934 0.564 1.237 1.018s0.464 0.988 0.463 1.534c0.005 0.365-0.063 0.728-0.201 1.066s-0.343 0.645-0.602 0.903c-0.259 0.258-0.568 0.46-0.907 0.596s-0.702 0.202-1.068 0.194zM27.271 27.273h-4.809v-8.349c0-2.462-1.047-3.222-2.398-3.222-1.427 0-2.827 1.076-2.827 3.285v8.287h-4.811v-15.284h4.627v2.118h0.062c0.464-0.94 2.091-2.547 4.573-2.547 2.684 0 5.584 1.593 5.584 6.26l-0.002 9.453z"></path>
</symbol>
<symbol id="icon-Social" viewBox="0 0 32 32">
<path d="M16 32c8.837 0 16-7.163 16-16s-7.163-16-16-16c-8.837 0-16 7.163-16 16s7.163 16 16 16z"></path>
<path d="M7.243 15.831c4.664-2.032 7.775-3.372 9.331-4.019 4.443-1.848 5.367-2.169 5.968-2.18 0.132-0.002 0.428 0.030 0.62 0.186 0.162 0.131 0.206 0.309 0.228 0.433s0.048 0.408 0.027 0.63c-0.241 2.53-1.283 8.669-1.813 11.503-0.224 1.199-0.666 1.601-1.093 1.64-0.929 0.085-1.635-0.614-2.535-1.204-1.408-0.923-2.204-1.498-3.571-2.398-1.58-1.041-0.556-1.613 0.345-2.548 0.236-0.245 4.329-3.968 4.409-4.306 0.010-0.042 0.019-0.2-0.074-0.283s-0.232-0.055-0.331-0.032c-0.141 0.032-2.391 1.519-6.749 4.461-0.639 0.439-1.217 0.652-1.735 0.641-0.571-0.012-1.67-0.323-2.487-0.589-1.002-0.326-1.798-0.498-1.729-1.051 0.036-0.288 0.433-0.583 1.19-0.884z"></path>
</symbol>
<symbol id="icon-Vector" viewBox="0 0 32 32">
<path d="M24.527 9.363c-1.060 0.002-1.921-0.856-1.923-1.916s0.856-1.921 1.916-1.923 1.922 0.856 1.924 1.916c0.002 1.060-0.857 1.921-1.917 1.923z"></path>
<path d="M16.015 24.215c-4.537 0.009-8.222-3.662-8.231-8.199-0.009-4.537 3.662-8.222 8.199-8.231s8.223 3.664 8.232 8.2c0.009 4.538-3.664 8.222-8.201 8.231zM15.989 10.667c-2.944 0.005-5.328 2.398-5.323 5.343s2.399 5.329 5.343 5.323c2.946-0.006 5.329-2.398 5.323-5.343s-2.399-5.328-5.344-5.322z"></path>
<path d="M5.492 0.862c1.016-0.398 2.179-0.671 3.881-0.751 1.707-0.082 2.251-0.101 6.596-0.109s4.89 0.008 6.597 0.084c1.703 0.074 2.866 0.342 3.884 0.736 1.053 0.406 1.947 0.952 2.838 1.839 0.891 0.888 1.439 1.779 1.85 2.83 0.398 1.017 0.67 2.179 0.751 3.882 0.081 1.706 0.101 2.25 0.109 6.595s-0.009 4.89-0.084 6.597c-0.074 1.702-0.342 2.866-0.736 3.883-0.407 1.053-0.952 1.947-1.839 2.838s-1.779 1.439-2.83 1.851c-1.017 0.397-2.179 0.67-3.881 0.751-1.707 0.081-2.251 0.1-6.597 0.108-4.344 0.008-4.889-0.008-6.595-0.084-1.703-0.075-2.867-0.343-3.884-0.736-1.053-0.407-1.947-0.952-2.838-1.84s-1.44-1.779-1.851-2.831c-0.398-1.017-0.67-2.179-0.751-3.881-0.081-1.707-0.101-2.253-0.109-6.597s0.009-4.889 0.083-6.596c0.075-1.703 0.342-2.867 0.736-3.885 0.407-1.053 0.952-1.946 1.84-2.837 0.887-0.891 1.779-1.44 2.83-1.85zM6.589 28.491c0.565 0.217 1.412 0.476 2.971 0.544 1.688 0.073 2.193 0.089 6.464 0.081 4.273-0.008 4.778-0.026 6.465-0.105 1.558-0.074 2.405-0.337 2.968-0.556 0.747-0.292 1.279-0.641 1.838-1.2 0.559-0.561 0.905-1.095 1.194-1.842 0.218-0.565 0.476-1.413 0.544-2.973 0.074-1.687 0.090-2.193 0.081-6.465-0.008-4.271-0.026-4.777-0.106-6.465-0.074-1.559-0.335-2.406-0.556-2.968-0.292-0.748-0.64-1.279-1.201-1.838s-1.094-0.904-1.842-1.193c-0.564-0.218-1.412-0.476-2.97-0.544-1.688-0.074-2.194-0.089-6.466-0.081-4.271 0.008-4.777 0.025-6.464 0.105-1.559 0.074-2.405 0.336-2.969 0.556-0.747 0.292-1.278 0.639-1.838 1.2-0.558 0.561-0.904 1.094-1.193 1.842-0.217 0.564-0.477 1.412-0.544 2.971-0.074 1.688-0.089 2.194-0.081 6.465s0.026 4.778 0.105 6.465c0.073 1.56 0.337 2.406 0.556 2.971 0.292 0.746 0.64 1.278 1.2 1.837 0.561 0.557 1.095 0.904 1.842 1.193z"></path>
</symbol>
</defs>
</svg>
